<?xml version="1.0" encoding="UTF-8" standalone="no"?>
<!-- Created with Inkscape (http://www.inkscape.org/) -->

<svg
   xmlns:dc="http://purl.org/dc/elements/1.1/"
   xmlns:cc="http://creativecommons.org/ns#"
   xmlns:rdf="http://www.w3.org/1999/02/22-rdf-syntax-ns#"
   xmlns:svg="http://www.w3.org/2000/svg"
   xmlns="http://www.w3.org/2000/svg"
   xmlns:sodipodi="http://sodipodi.sourceforge.net/DTD/sodipodi-0.dtd"
   xmlns:inkscape="http://www.inkscape.org/namespaces/inkscape"
   width="250mm"
   height="150mm"
   viewBox="0 0 250 150"
   version="1.1"
   id="svg8"
   sodipodi:docname="Martin_Sidorov_LOGITgv19_Harjutus5.svg"
   inkscape:version="0.92.5 (2060ec1f9f, 2020-04-08)">
  <title
     id="title898">Harjutus5</title>
  <defs
     id="defs2" />
  <sodipodi:namedview
     id="base"
     pagecolor="#ffffff"
     bordercolor="#666666"
     borderopacity="1.0"
     inkscape:pageopacity="0.0"
     inkscape:pageshadow="2"
     inkscape:zoom="2.8"
     inkscape:cx="512.93815"
     inkscape:cy="314.47899"
     inkscape:document-units="mm"
     inkscape:current-layer="g918"
     showgrid="false"
     inkscape:snap-global="false"
     inkscape:window-width="1920"
     inkscape:window-height="1001"
     inkscape:window-x="-9"
     inkscape:window-y="-9"
     inkscape:window-maximized="1"
     showguides="false" />
  <metadata
     id="metadata5">
    <rdf:RDF>
      <cc:Work
         rdf:about="">
        <dc:format>image/svg+xml</dc:format>
        <dc:type
           rdf:resource="http://purl.org/dc/dcmitype/StillImage" />
        <dc:title>Harjutus5</dc:title>
        <dc:date>17.05.2020</dc:date>
        <dc:creator>
          <cc:Agent>
            <dc:title>Martin Sidorov</dc:title>
          </cc:Agent>
        </dc:creator>
      </cc:Work>
    </rdf:RDF>
  </metadata>
  <g
     inkscape:label="Layer 1"
     inkscape:groupmode="layer"
     id="layer1"
     transform="translate(0,-147)">
    <rect
       style="opacity:1;fill:#21475f;fill-opacity:1;stroke:none;stroke-width:11.53367043;stroke-linejoin:round;stroke-miterlimit:4;stroke-dasharray:none;stroke-opacity:1;paint-order:stroke fill markers"
       id="rect888"
       width="205.24107"
       height="78.997017"
       x="23.056547"
       y="182.09523"
       ry="4.5928454" />
    <circle
       style="opacity:1;fill:#ffffff;fill-opacity:1;stroke:none;stroke-width:6.00675631;stroke-linejoin:round;stroke-miterlimit:4;stroke-dasharray:none;stroke-opacity:1;paint-order:stroke fill markers"
       id="path878"
       cx="66.145828"
       cy="220.64882"
       r="26.458332" />
    <path
       style="fill:#21475f;fill-opacity:1;stroke:none;stroke-width:0.17460075px;stroke-linecap:butt;stroke-linejoin:miter;stroke-opacity:1"
       d="m 54.609821,207.6207 -5.270701,8.16177 h 10.090523 z m 0.502053,0 5.270705,8.16177 4.819822,-8.16177 z m 11.04403,0 -5.270704,8.16177 h 10.090526 z m 0.502054,0 5.270703,8.16177 4.819823,-8.16177 z m 11.044029,0 -5.270705,8.16177 H 82.52181 Z m -28.362867,9.48469 16.811098,22.52472 -6.720575,-22.52472 z m 11.54608,0 5.270704,22.52472 4.819822,-22.52472 z m 11.546082,0 -6.269693,22.52472 16.360221,-22.52472 z"
       id="path817"
       inkscape:connector-curvature="0" />
    <circle
       r="26.458332"
       cy="220.64882"
       cx="126.62202"
       id="circle890"
       style="opacity:1;fill:#ffffff;fill-opacity:1;stroke:none;stroke-width:6.00675631;stroke-linejoin:round;stroke-miterlimit:4;stroke-dasharray:none;stroke-opacity:1;paint-order:stroke fill markers" />
    <circle
       style="opacity:1;fill:#ffffff;fill-opacity:1;stroke:none;stroke-width:6.00675631;stroke-linejoin:round;stroke-miterlimit:4;stroke-dasharray:none;stroke-opacity:1;paint-order:stroke fill markers"
       id="circle894"
       cx="187.09822"
       cy="220.64882"
       r="26.458332" />
    <g
       id="g918">
      <path
         style="opacity:1;fill:#d9cfc9;fill-opacity:1;stroke:#21475f;stroke-width:0.79374999;stroke-linejoin:round;stroke-miterlimit:4;stroke-dasharray:none;stroke-opacity:1;paint-order:stroke fill markers"
         d="m 111.43867,207.99924 h 30.49418 c 2.81328,0 5.07812,2.26484 5.07812,5.07811 v 14.96711 c 0,2.81327 -2.26484,5.07811 -5.07812,5.07811 h -30.49418 c -2.81327,0 -5.07811,-2.26484 -5.07811,-5.07811 v -14.96711 c 0,-2.81327 2.26484,-5.07811 5.07811,-5.07811 z"
         id="rect900" />
      <rect
         ry="0"
         y="212.82675"
         x="106.2049"
         height="6.6924114"
         width="40.943748"
         id="rect902"
         style="opacity:1;fill:#21475f;fill-opacity:1;stroke:none;stroke-width:0.68278795;stroke-linejoin:round;stroke-miterlimit:4;stroke-dasharray:none;stroke-opacity:1;paint-order:stroke fill markers" />
      <path
         id="rect904"
         transform="matrix(0.26458333,0,0,0.26458333,0,147)"
         d="M 406.93945 288.99609 L 406.93945 297.63672 L 472.23242 297.63672 L 472.23242 288.99609 L 406.93945 288.99609 z M 406.93945 299.09766 L 406.93945 307.73828 L 443.26953 307.73828 L 443.26953 299.09766 L 406.93945 299.09766 z "
         style="opacity:1;fill:#21475f;fill-opacity:1;stroke:none;stroke-width:0.97971451;stroke-linejoin:round;stroke-miterlimit:4;stroke-dasharray:none;stroke-opacity:1;paint-order:stroke fill markers" />
    </g>
    <g
       id="g997">
      <g
         transform="matrix(0.92589959,0,0,1.0388369,70.052646,-7.4319861)"
         id="g934">
        <path
           style="opacity:1;fill:#ffffff;fill-opacity:1;stroke:#21475f;stroke-width:0.86074495;stroke-linejoin:round;stroke-miterlimit:4;stroke-dasharray:none;stroke-opacity:1;paint-order:stroke fill markers"
           d="m 112.37542,205.76489 h 28.62068 c 3.31368,0 5.98137,2.66769 5.98137,5.98137 v 17.62932 c 0,3.31368 -2.66769,5.98137 -5.98137,5.98137 h -28.62068 c -3.31368,0 -5.98137,-2.66769 -5.98137,-5.98137 v -17.62932 c 0,-3.31368 2.66769,-5.98137 5.98137,-5.98137 z"
           id="rect928" />
      </g>
      <path
         inkscape:connector-curvature="0"
         id="rect965"
         d="m 183.37305,203.70703 c -0.56433,0 -1.02735,0.46302 -1.02735,1.02735 v 0.56445 c 0,0.56432 0.46302,1.02929 1.02735,1.02929 h 8.4414 c 0.56433,0 1.0293,-0.46497 1.0293,-1.02929 v -0.56445 c 0,-0.56433 -0.46497,-1.02735 -1.0293,-1.02735 z m 0,0.64063 h 8.4414 c 0.2208,0 0.38868,0.16592 0.38867,0.38672 v 0.56445 c 0,0.22079 -0.16787,0.38867 -0.38867,0.38867 h -8.4414 c -0.2208,0 -0.38672,-0.16788 -0.38672,-0.38867 v -0.56445 c 0,-0.2208 0.16592,-0.38672 0.38672,-0.38672 z"
         style="color:#000000;font-style:normal;font-variant:normal;font-weight:normal;font-stretch:normal;font-size:medium;line-height:normal;font-family:sans-serif;font-variant-ligatures:normal;font-variant-position:normal;font-variant-caps:normal;font-variant-numeric:normal;font-variant-alternates:normal;font-feature-settings:normal;text-indent:0;text-align:start;text-decoration:none;text-decoration-line:none;text-decoration-style:solid;text-decoration-color:#000000;letter-spacing:normal;word-spacing:normal;text-transform:none;writing-mode:lr-tb;direction:ltr;text-orientation:mixed;dominant-baseline:auto;baseline-shift:baseline;text-anchor:start;white-space:normal;shape-padding:0;clip-rule:nonzero;display:inline;overflow:visible;visibility:visible;opacity:1;isolation:auto;mix-blend-mode:normal;color-interpolation:sRGB;color-interpolation-filters:linearRGB;solid-color:#000000;solid-opacity:1;vector-effect:none;fill:#21475f;fill-opacity:1;fill-rule:nonzero;stroke:none;stroke-width:0.64008135;stroke-linecap:butt;stroke-linejoin:round;stroke-miterlimit:4;stroke-dasharray:none;stroke-dashoffset:0;stroke-opacity:1;paint-order:stroke fill markers;color-rendering:auto;image-rendering:auto;shape-rendering:auto;text-rendering:auto;enable-background:accumulate" />
      <path
         id="rect984"
         transform="matrix(0.26458333,0,0,0.26458333,0,147)"
         d="M 655.12305 255.60352 L 655.12305 262.49023 L 762.01953 262.49023 L 762.01953 255.60352 L 655.12305 255.60352 z M 655.12305 279.59375 L 655.12305 286.48242 L 762.01953 286.48242 L 762.01953 279.59375 L 655.12305 279.59375 z M 655.12305 303.58594 L 655.12305 310.47266 L 762.01953 310.47266 L 762.01953 303.58594 L 655.12305 303.58594 z "
         style="opacity:1;fill:#21475f;fill-opacity:1;stroke:none;stroke-width:2.74159479;stroke-linejoin:round;stroke-miterlimit:4;stroke-dasharray:none;stroke-opacity:1;paint-order:stroke fill markers" />
    </g>
  </g>
</svg>
