<?xml version="1.0" encoding="UTF-8" standalone="no"?>
<!-- Created with Inkscape (http://www.inkscape.org/) -->

<svg
   xmlns:dc="http://purl.org/dc/elements/1.1/"
   xmlns:cc="http://creativecommons.org/ns#"
   xmlns:rdf="http://www.w3.org/1999/02/22-rdf-syntax-ns#"
   xmlns:svg="http://www.w3.org/2000/svg"
   xmlns="http://www.w3.org/2000/svg"
   xmlns:sodipodi="http://sodipodi.sourceforge.net/DTD/sodipodi-0.dtd"
   xmlns:inkscape="http://www.inkscape.org/namespaces/inkscape"
   width="310mm"
   height="200mm"
   viewBox="0 0 310 200"
   version="1.1"
   id="svg8"
   inkscape:version="0.92.5 (2060ec1f9f, 2020-04-08)"
   sodipodi:docname="Martin_Sidorov_LOGITgv19_Harjutus6.svg.2020_05_22_18_00_49.0.svg">
  <title
     id="title3888">Harjutus6</title>
  <defs
     id="defs2" />
  <sodipodi:namedview
     id="base"
     pagecolor="#ffffff"
     bordercolor="#666666"
     borderopacity="1.0"
     inkscape:pageopacity="0.0"
     inkscape:pageshadow="2"
     inkscape:zoom="0.70000001"
     inkscape:cx="644.39737"
     inkscape:cy="506.80668"
     inkscape:document-units="mm"
     inkscape:current-layer="layer1"
     showgrid="false"
     inkscape:window-width="1593"
     inkscape:window-height="1137"
     inkscape:window-x="2202"
     inkscape:window-y="417"
     inkscape:window-maximized="0"
     inkscape:snap-global="false" />
  <metadata
     id="metadata5">
    <rdf:RDF>
      <cc:Work
         rdf:about="">
        <dc:format>image/svg+xml</dc:format>
        <dc:type
           rdf:resource="http://purl.org/dc/dcmitype/StillImage" />
        <dc:title>Harjutus6</dc:title>
        <dc:date>22.05.2020</dc:date>
        <dc:creator>
          <cc:Agent>
            <dc:title>Martin Sidorov</dc:title>
          </cc:Agent>
        </dc:creator>
      </cc:Work>
    </rdf:RDF>
  </metadata>
  <g
     inkscape:label="Layer 1"
     inkscape:groupmode="layer"
     id="layer1"
     transform="translate(0,-97)">
    <path
       sodipodi:type="star"
       style="opacity:1;fill:#ffcb00;fill-opacity:1;stroke:none;stroke-width:0.33777666;stroke-opacity:1"
       id="path3890"
       sodipodi:sides="5"
       sodipodi:cx="83.727278"
       sodipodi:cy="192.47941"
       sodipodi:r1="62.264244"
       sodipodi:r2="31.132126"
       sodipodi:arg1="0.95054684"
       sodipodi:arg2="1.5788654"
       inkscape:flatsided="false"
       inkscape:rounded="0"
       inkscape:randomized="0"
       d="M 119.91764,243.14592 83.476075,223.61053 46.72401,242.5553 54.042206,201.86055 24.667645,172.76151 65.6321,167.14616 84.229687,130.2172 l 17.999233,37.22427 40.8685,6.27568 -29.84032,28.62122 z"
       inkscape:transform-center-x="-0.15525169"
       inkscape:transform-center-y="-5.7978596" />
    <path
       style="opacity:1;fill:#0098ff;fill-opacity:1;stroke:none;stroke-width:0.21416152;stroke-opacity:1"
       d="m 120.80075,182.46855 a 80.051546,28.147537 0 0 1 -38.087791,3.42087 80.051546,28.147537 0 0 1 -35.22158,-2.90989 c 3.404399,5.17387 12.670289,14.70476 13.324309,16.77429 0.826146,2.61421 -2.755458,22.88038 -0.5505,24.50972 2.204958,1.62935 20.52573,-7.74506 23.267279,-7.72294 2.741549,0.0221 20.908753,9.69089 23.139713,8.09734 2.23096,-1.59355 -1.02353,-21.91473 -0.1553,-24.51527 0.74005,-2.21663 11.60253,-12.92144 14.28387,-17.65412 z"
       id="path4699"
       inkscape:connector-curvature="0" />
    <circle
       style="opacity:1;fill:#575146;fill-opacity:1;stroke:none;stroke-width:0.41035211;stroke-opacity:1"
       id="path19"
       cx="83.427589"
       cy="170.67073"
       r="9.9656944" />
    <g
       id="g24"
       transform="translate(-5.6696428,44.60119)">
      <path
         transform="matrix(0.26458333,0,0,0.26458333,0,17)"
         id="rect18"
         d="m 882.56055,344.81836 a 164.33647,164.42313 0 0 0 -15.55274,0.7832 h -147.7832 v 146.01172 a 164.33647,164.42313 0 0 0 -0.041,0.29492 v 33.47461 A 164.33647,164.42313 0 0 0 856.7676,671.42383 h 24.99414 v 0.0586 H 1047.125 V 509.65234 h -0.5625 v -9.89062 A 164.33647,164.42313 0 0 0 882.56055,344.81836 Z m 0.082,23.23437 h 0.002 a 140.96007,141.03441 0 0 1 140.67185,132.90235 v 8.48437 h 0.4824 V 648.25 H 881.95703 v -0.0508 H 860.51758 A 140.96007,141.03441 0 0 1 742.50586,522.93164 v -28.71289 a 140.96007,141.03441 0 0 1 0.0371,-0.25391 V 368.72461 h 126.76172 a 140.96007,141.03441 0 0 1 13.33789,-0.67188 z"
         style="opacity:1;fill:#ff3000;fill-opacity:1;stroke:none;stroke-width:0.91036159;stroke-opacity:1"
         inkscape:connector-curvature="0" />
      <circle
         r="19.10977"
         cy="150.40266"
         cx="233.59357"
         id="path868"
         style="opacity:1;fill:#00669c;fill-opacity:1;stroke:none;stroke-width:0.26458332;stroke-opacity:1" />
    </g>
  </g>
</svg>
